<?xml version="1.0" encoding="utf-8" ?>
<svg xmlns="http://www.w3.org/2000/svg" xmlns:xlink="http://www.w3.org/1999/xlink" width="1024" height="1024">
	<path fill="#8F1817" d="M563.931 301.534L614.483 301.522L614.493 311.621L614.516 493.666C614.518 494.781 614.728 494.539 613.877 495.419C597.261 494.61 580.452 495.094 563.817 495.32C563.364 476.975 563.696 458.562 563.695 440.207L563.931 301.534Z"/>
	<path fill="#8F1817" d="M240.145 301.333C252.432 302.331 265.428 301.508 277.774 301.51L354.041 301.515C354.414 332.039 354.04 362.629 353.985 393.159Q354.002 411.318 353.799 429.476C353.713 435.568 353.883 441.828 353.289 447.887C352.832 452.56 351.698 457.339 350.107 461.753C345.106 475.63 334.549 485.28 321.363 491.283C298.631 501.634 272.265 499.798 249.366 491.184C237.082 485.592 227.074 478.569 217.698 468.866C225.966 456.871 235.698 445.555 244.759 434.128C247.599 437.734 250.466 441.343 253.575 444.723C260.465 452.212 269.31 458.373 279.801 458.746C286.205 458.973 292.763 457.197 297.44 452.636C300.487 449.664 302.881 445.437 303.764 441.265C306.475 428.458 304.768 408.079 304.642 394.506C304.474 376.339 304.971 358.096 304.977 339.915L240.157 339.688Q239.999 320.51 240.145 301.333Z"/>
	<path fill="#202945" d="M245.544 525.252C284.755 524.359 324.148 525.119 363.379 525.09C362.506 554.261 363.042 583.575 363.086 612.758C363.117 634.035 365.273 662.595 359.005 682.713C354.633 696.748 346.235 707.163 333.109 714.021C311.415 725.357 280.188 723.698 257.38 716.673C245.541 712.497 230.122 702.164 223.01 691.691C229.456 681.682 241.553 666.635 249.848 658.154Q252.228 662.007 255.227 665.4C262.669 673.788 273.058 680.716 284.572 681.267C291.182 681.584 299.902 680.776 304.889 676.023C308.369 672.707 310.326 667.095 311.119 662.418C312.755 652.772 311.529 638.69 311.507 628.644Q311.265 595.415 312.025 562.193C290.002 561.31 267.593 562.325 245.535 562.444L245.544 525.252Z"/>
	<path fill="#8F1817" d="M650.551 301.437C668.091 301.85 685.732 301.48 703.281 301.491L806.51 301.559L806.492 340.464L700.492 340.025L700.532 392.471C731.2 391.955 761.947 392.48 792.624 392.343L793.731 392.511C794.853 395.617 794.128 422.542 794.143 428.635C763.049 429.325 731.836 428.578 700.723 428.772C701.279 436.772 700.923 444.995 700.91 453.02L700.808 495.38C693.27 494.798 685.53 495.108 677.967 495.105C668.799 495.101 659.526 494.861 650.378 495.458C651.12 430.807 650.55 366.093 650.551 301.437Z"/>
	<path fill="#8F1817" d="M388.205 301.449C405.038 302.177 422.207 301.513 439.066 301.508L541.405 301.485Q541.555 320.589 541.212 339.69C507.147 340.793 472.811 339.97 438.714 339.99C439.053 357.676 438.652 375.416 438.773 393.111L496.501 392.685C507.938 392.665 519.457 393.121 530.88 392.815L532.022 392.811C533.453 396.009 532.492 425.166 532.48 430.53L438.657 430.425C439.427 437.415 438.912 444.912 438.898 451.96Q438.755 473.453 438.92 494.944C422.074 495.071 405.142 494.598 388.312 495.276C387.448 476.789 388.282 458.023 388.189 439.494L388.205 301.449Z"/>
	<path fill="#202945" d="M695.851 521.226C698.779 520.825 702.107 521.103 705.069 521.204C722.908 521.806 741.889 525.916 757.953 533.954C764.102 537.03 783.586 548.664 785.796 555.276C785.003 558.752 761.718 584.126 757.525 588.928C746.314 576.866 734.821 567.101 718.408 563.142C702.571 559.322 683.995 561.298 670.045 570.014Q668.833 570.783 667.659 571.611Q666.486 572.439 665.355 573.323Q664.223 574.207 663.137 575.146Q662.05 576.084 661.01 577.075Q659.971 578.066 658.982 579.106Q657.992 580.147 657.054 581.234Q656.117 582.322 655.234 583.454Q654.351 584.587 653.524 585.761Q652.698 586.935 651.93 588.148Q651.162 589.361 650.454 590.611Q649.747 591.86 649.101 593.143Q648.455 594.425 647.873 595.738Q647.291 597.051 646.774 598.39Q646.257 599.73 645.807 601.093Q645.356 602.457 644.973 603.84Q644.589 605.224 644.274 606.625C640.618 622.942 643.745 643.022 652.753 657.183C660.416 669.231 673.671 679.141 687.738 682.084C704.909 685.677 724.359 682.08 739.056 672.548C738.593 666.86 738.977 660.904 738.989 655.185L739.054 621.349L759.75 621.395L784.256 621.427C783.974 645.486 783.349 669.915 784.395 693.941C761.645 711.313 739.928 720.458 711.054 722.448C679.361 724.632 646.303 717.554 621.968 696.089C602.842 679.22 591.892 655.598 590.491 630.224C589.042 603.966 597.571 576.761 615.293 557.076C636.334 533.704 665.019 522.952 695.851 521.226Z"/>
	<path fill="#202945" d="M396.972 524.559C406.996 525.305 417.184 524.981 427.234 524.977L474.947 524.966C486.847 524.967 499.023 524.376 510.785 526.463C522.113 528.472 533.595 532.816 543.347 538.882C557.393 547.618 566.835 561.676 570.559 577.699C575.02 596.888 572.502 618.801 561.876 635.623C551.646 651.815 533.463 662.296 515.118 666.446C492.823 670.589 470.274 668.411 447.734 669.297C448.075 686.078 447.994 703.028 447.589 719.806L396.901 719.775C397.783 690.95 397.14 661.918 397.118 633.075C397.089 596.917 397.505 560.71 396.972 524.559ZM447.676 563.842C447.654 586.522 447.166 609.313 447.71 631.981C465.226 632.042 499.845 635.2 512.62 622.702C520.391 614.453 522.614 606.205 522.289 595.037C522.042 586.514 519.574 578.787 513.166 572.816C501.899 562.318 485.099 563.875 470.855 563.854C463.134 563.842 455.394 563.73 447.676 563.842Z"/>
</svg>
